<svg width="64" height="65" viewBox="0 0 64 65" fill="none" xmlns="http://www.w3.org/2000/svg">
<path d="M16.4658 62.03H47.3415L44.5947 56.5605C44.2894 55.7978 43.7583 55.1466 43.0726 54.6941C42.387 54.2416 41.5794 54.0094 40.7581 54.0286H23.2719C22.4506 54.0094 21.643 54.2416 20.9574 54.6941C20.2717 55.1466 19.7406 55.7978 19.4353 56.5605L16.4658 62.03Z" stroke="#DFAE4F" stroke-width="1.5"/>
<path d="M26.0127 54.026V51.2699C26.1195 49.7805 26.8102 48.3935 27.9344 47.4107C29.0586 46.4279 30.5254 45.9288 32.0157 46.0219C33.5061 45.9288 34.9729 46.4279 36.0971 47.4107C37.2213 48.3935 37.912 49.7805 38.0188 51.2699V54.026" stroke="#DFAE4F" stroke-width="1.5"/>
<path d="M32.0156 45.9925V16.0066" stroke="white" stroke-width="1.5"/>
<path d="M36.932 11.2761C36.9022 12.546 36.3769 13.7538 35.4682 14.6415C34.5596 15.5291 33.3397 16.026 32.0695 16.026C30.7993 16.026 29.5794 15.5291 28.6708 14.6415C27.7621 13.7538 27.2368 12.546 27.207 11.2761C27.8979 8.30586 29.0531 5.46326 30.6301 2.85314C30.7714 2.59488 30.9796 2.37941 31.2329 2.22931C31.4861 2.0792 31.7751 2 32.0695 2C32.3639 2 32.6529 2.0792 32.9061 2.22931C33.1594 2.37941 33.3676 2.59488 33.5089 2.85314C35.0848 5.46382 36.2399 8.30624 36.932 11.2761Z" stroke="#DFAE4F" stroke-width="1.5"/>
<path d="M6.00195 20.0087H58.0284" stroke="white" stroke-width="1.5"/>
<path d="M12.0049 20.0087V32.0148" stroke="white" stroke-width="1.5"/>
<path d="M20.7479 32.0148C20.9283 32.0147 21.1067 32.0532 21.2709 32.1278C21.4352 32.2023 21.5817 32.3112 21.7004 32.447C21.8192 32.5813 21.9072 32.74 21.9584 32.9119C22.0095 33.0838 22.0226 33.2647 21.9966 33.4422C21.6296 35.829 20.4203 38.0057 18.5876 39.5782C16.7548 41.1507 14.4197 42.0152 12.0048 42.0152C9.58991 42.0152 7.25478 41.1507 5.42204 39.5782C3.58929 38.0057 2.38001 35.829 2.01306 33.4422C1.98702 33.2643 2.00002 33.0829 2.05117 32.9106C2.10231 32.7383 2.19036 32.5792 2.30921 32.4443C2.42883 32.3091 2.57587 32.2008 2.74055 32.1267C2.90523 32.0527 3.08379 32.0145 3.26436 32.0148H20.7479Z" stroke="#DFAE4F" stroke-width="1.5"/>
<path d="M52.0254 20.0087V32.0148" stroke="white" stroke-width="1.5"/>
<path d="M60.7684 32.0148C60.9488 32.0147 61.1272 32.0532 61.2915 32.1278C61.4557 32.2023 61.6022 32.3112 61.7209 32.447C61.8397 32.5813 61.9277 32.74 61.9789 32.9119C62.03 33.0838 62.0431 33.2647 62.0171 33.4422C61.6501 35.829 60.4408 38.0057 58.6081 39.5782C56.7753 41.1507 54.4402 42.0152 52.0253 42.0152C49.6104 42.0152 47.2753 41.1507 45.4425 39.5782C43.6098 38.0057 42.4005 35.829 42.0336 33.4422C42.0075 33.2643 42.0205 33.0829 42.0717 32.9106C42.1228 32.7383 42.2109 32.5792 42.3297 32.4443C42.4493 32.3091 42.5964 32.2008 42.7611 32.1267C42.9257 32.0527 43.1043 32.0145 43.2849 32.0148H60.7684Z" stroke="#DFAE4F" stroke-width="1.5"/>
</svg>
