<svg width="224" height="43" viewBox="0 0 224 43" fill="none" xmlns="http://www.w3.org/2000/svg">
<path d="M69.8002 10.9154H72.2602V30.1754H82.9702V32.2754H69.8002V10.9154ZM102.688 26.7854H91.5284L89.1584 32.2754H86.6084L95.9984 10.9154H98.1584L107.548 32.2754H105.028L102.688 26.7854ZM101.818 24.7454L97.1084 13.7654L92.3984 24.7454H101.818ZM141.535 10.9154L134.065 32.2754H131.965L125.875 14.7854L119.755 32.2754H117.685L110.185 10.9154H112.705L118.765 28.7654L124.975 10.9154L126.865 10.9454L132.985 28.8254L139.105 10.9154H141.535ZM156.265 23.6354V32.2754H153.805V23.6054L145.405 10.9154H148.285L155.065 21.4154L161.845 10.9154H164.665L156.265 23.6354ZM169.808 10.9154H183.308V12.9554H172.238V20.3954H182.708V22.4654H172.238V30.2354H183.308V32.2754H169.808V10.9154ZM207.215 32.2754H204.605L201.965 25.1654C201.645 24.2854 201.195 23.6954 200.615 23.3954C200.055 23.0954 199.255 22.9454 198.215 22.9454H192.875V32.2754H190.445V10.9154H198.935C201.235 10.9154 202.995 11.4254 204.215 12.4454C205.455 13.4654 206.075 14.9354 206.075 16.8554C206.075 18.2554 205.705 19.4354 204.965 20.3954C204.245 21.3354 203.195 22.0054 201.815 22.4054C202.435 22.5054 202.965 22.7754 203.405 23.2154C203.845 23.6354 204.215 24.2454 204.515 25.0454L207.215 32.2754ZM198.725 20.9054C202.005 20.9054 203.645 19.5654 203.645 16.8854C203.645 15.5654 203.245 14.5854 202.445 13.9454C201.645 13.2854 200.405 12.9554 198.725 12.9554H192.875V20.9054H198.725Z" fill="white"/>
<path d="M27.4882 40.8483L25.3418 42.5507V0H27.4882V40.8483Z" fill="#DFAE4F"/>
<path d="M33.0334 35.5179L30.8877 37.2196V5.33032H33.0334V35.5179Z" fill="#DFAE4F"/>
<path d="M21.9413 35.5179L19.7949 37.2196V5.33032H21.9413V35.5179Z" fill="#DFAE4F"/>
<path d="M52.0176 4.25708C52.0176 4.84986 51.7777 5.38686 51.3888 5.77533C51.0011 6.1638 50.4644 6.40441 49.8719 6.40441H2.95822C1.7725 6.40441 0.8125 5.44332 0.8125 4.25708H52.0176Z" fill="#DFAE4F"/>
<path d="M8.66216 6.40441L7.90437 4.25708H6.38611L5.62832 6.40441L0 22.3652H14.2905L8.66216 6.40441ZM7.14524 8.55711L11.258 20.2185H3.03316L7.14524 8.55711Z" fill="#DFAE4F"/>
<path d="M10.6289 26.141H3.66299C2.47794 26.141 1.5166 25.1799 1.5166 23.9937H12.7746C12.7746 25.1799 11.8139 26.141 10.6289 26.141Z" fill="#DFAE4F"/>
<path d="M47.0283 6.40441L46.2711 4.25708H45.0955L44.3384 6.40441L38.5381 22.8518H52.8286L47.0283 6.40441ZM45.6833 9.04303L49.7954 20.7045H41.5706L45.6833 9.04303Z" fill="#DFAE4F"/>
<path d="M49.1663 26.6276H42.2011C41.016 26.6276 40.0547 25.6665 40.0547 24.481H51.312C51.3127 25.6665 50.3513 26.6276 49.1663 26.6276Z" fill="#DFAE4F"/>
</svg>
