<svg width="64" height="65" viewBox="0 0 64 65" fill="none" xmlns="http://www.w3.org/2000/svg">
<path d="M17.4766 26.714H58.6665" stroke="#DFAE4F" stroke-width="1.5"/>
<path d="M38.0703 22.5946V55.5466" stroke="#DFAE4F" stroke-width="1.5"/>
<path d="M29.832 63.785C29.832 61.6001 30.7 59.5048 32.2449 57.9598C33.7898 56.4149 35.8852 55.547 38.07 55.547C40.2549 55.547 42.3502 56.4149 43.8952 57.9598C45.4401 59.5048 46.308 61.6001 46.308 63.785H29.832Z" stroke="#DFAE4F" stroke-width="1.5"/>
<path d="M13.2188 42.6626L21.5931 27.8L29.9617 42.6819" stroke="#DFAE4F" stroke-width="1.5"/>
<path d="M46.1758 42.7051L54.5461 28.1001L62.9249 42.7051" stroke="#DFAE4F" stroke-width="1.5"/>
<path d="M29.8305 43.1901C29.8305 45.3749 28.9625 47.4703 27.4176 49.0152C25.8727 50.5601 23.7773 51.4281 21.5925 51.4281C19.4076 51.4281 17.3123 50.5601 15.7673 49.0152C14.2224 47.4703 13.3545 45.3749 13.3545 43.1901H29.8305Z" stroke="#DFAE4F" stroke-width="1.5"/>
<path d="M62.7846 43.1901C62.7846 45.3749 61.9167 47.4703 60.3717 49.0152C58.8268 50.5601 56.7314 51.4281 54.5466 51.4281C52.3617 51.4281 50.2664 50.5601 48.7214 49.0152C47.1765 47.4703 46.3086 45.3749 46.3086 43.1901H62.7846Z" stroke="#DFAE4F" stroke-width="1.5"/>
<path d="M17.476 59.6659H5.119C4.02657 59.6659 2.97889 59.232 2.20643 58.4595C1.43396 57.687 1 56.6394 1 55.5469V6.119C1 5.02657 1.43396 3.97889 2.20643 3.20643C2.97889 2.43396 4.02657 2 5.119 2H33.098C33.6449 2.00005 34.1694 2.21736 34.5561 2.60412L45.7048 13.7529C46.0916 14.1396 46.3089 14.6641 46.309 15.211V18.476" stroke="white" stroke-width="1.5"/>
</svg>
