<svg width="64" height="65" viewBox="0 0 64 65" fill="none" xmlns="http://www.w3.org/2000/svg">
<path d="M40.6805 46.7676C40.8818 46.7676 41.0785 46.8272 41.2458 46.939C41.4131 47.0508 41.5435 47.2097 41.6205 47.3957C41.6975 47.5816 41.7177 47.7861 41.6784 47.9835C41.6392 48.1809 41.5423 48.3622 41.4 48.5045C41.2577 48.6468 41.0764 48.7437 40.879 48.7829C40.6817 48.8222 40.4771 48.802 40.2912 48.725C40.1053 48.648 39.9464 48.5176 39.8346 48.3503C39.7228 48.183 39.6631 47.9863 39.6631 47.785C39.6631 47.5152 39.7703 47.2564 39.9611 47.0656C40.1519 46.8748 40.4107 46.7676 40.6805 46.7676" stroke="#DFAE4F" stroke-width="1.5"/>
<path d="M50.8544 46.7676C51.0556 46.7676 51.2523 46.8272 51.4196 46.939C51.5869 47.0508 51.7173 47.2097 51.7944 47.3957C51.8714 47.5816 51.8915 47.7861 51.8523 47.9835C51.813 48.1809 51.7161 48.3622 51.5738 48.5045C51.4315 48.6468 51.2502 48.7437 51.0528 48.7829C50.8555 48.8222 50.6509 48.802 50.465 48.725C50.2791 48.648 50.1202 48.5176 50.0084 48.3503C49.8966 48.183 49.8369 47.9863 49.8369 47.785C49.8369 47.5152 49.9441 47.2564 50.1349 47.0656C50.3257 46.8748 50.5845 46.7676 50.8544 46.7676Z" stroke="#DFAE4F" stroke-width="1.5"/>
<path d="M40.6805 54.9073C40.8818 54.9073 41.0785 54.967 41.2458 55.0788C41.4131 55.1906 41.5435 55.3495 41.6205 55.5354C41.6975 55.7213 41.7177 55.9259 41.6784 56.1233C41.6392 56.3206 41.5423 56.5019 41.4 56.6442C41.2577 56.7865 41.0764 56.8834 40.879 56.9227C40.6817 56.9619 40.4771 56.9418 40.2912 56.8648C40.1053 56.7878 39.9464 56.6574 39.8346 56.4901C39.7228 56.3227 39.6631 56.126 39.6631 55.9248C39.6631 55.6549 39.7703 55.3962 39.9611 55.2054C40.1519 55.0145 40.4107 54.9073 40.6805 54.9073" stroke="#DFAE4F" stroke-width="1.5"/>
<path d="M50.8544 54.9073C51.0556 54.9073 51.2523 54.967 51.4196 55.0788C51.5869 55.1906 51.7173 55.3495 51.7944 55.5354C51.8714 55.7213 51.8915 55.9259 51.8523 56.1233C51.813 56.3206 51.7161 56.5019 51.5738 56.6442C51.4315 56.7865 51.2502 56.8834 51.0528 56.9227C50.8555 56.9619 50.6509 56.9418 50.465 56.8648C50.2791 56.7878 50.1202 56.6574 50.0084 56.4901C49.8966 56.3227 49.8369 56.126 49.8369 55.9248C49.8369 55.6549 49.9441 55.3962 50.1349 55.2054C50.3257 55.0145 50.5845 54.9073 50.8544 54.9073Z" stroke="#DFAE4F" stroke-width="1.5"/>
<path d="M53.9073 37.2715C53.9073 38.2293 53.91 38.6281 53.91 38.6281H37.6309C37.6309 38.6281 37.6309 38.1831 37.6309 37.2227L37.631 30.4885L53.9073 30.4885V37.2715Z" stroke="#DFAE4F" stroke-width="1.5"/>
<path d="M62.0466 22.349H29.4885L29.4884 25.4963V59.8995L29.4883 63.0468H62.0466V59.8995V25.4963V22.349Z" stroke="#DFAE4F" stroke-width="1.5"/>
<path d="M10.1571 10.1398C10.3583 10.1398 10.555 10.1994 10.7224 10.3112C10.8897 10.423 11.0201 10.5819 11.0971 10.7679C11.1741 10.9538 11.1942 11.1583 11.155 11.3557C11.1157 11.5531 11.0188 11.7344 10.8765 11.8767C10.7342 12.0189 10.553 12.1159 10.3556 12.1551C10.1582 12.1944 9.95365 12.1742 9.76773 12.0972C9.58182 12.0202 9.42292 11.8898 9.31112 11.7225C9.19932 11.5552 9.13965 11.3584 9.13965 11.1572C9.13965 10.8874 9.24684 10.6286 9.43765 10.4378C9.62846 10.247 9.88725 10.1398 10.1571 10.1398Z" stroke="white" stroke-width="1.5"/>
<path d="M21.3489 34.5582H1V2H53.9071V14.2093" stroke="white" stroke-width="1.5"/>
<path d="M20.4125 22.3655C19.8697 21.4252 19.5205 20.3857 19.3855 19.3084C19.2504 18.2311 19.3323 17.1376 19.6263 16.0924C19.9202 15.0472 20.4204 14.0714 21.0972 13.2224C21.774 12.3734 22.6138 11.6683 23.5672 11.1488C24.5206 10.6293 25.5683 10.3058 26.6487 10.1973C27.729 10.0889 28.8201 10.1976 29.8578 10.5172C30.8954 10.8368 31.8587 11.3608 32.6907 12.0583C33.5228 12.7558 34.207 13.6128 34.7029 14.5787" stroke="white" stroke-width="1.5"/>
</svg>
