<svg width="64" height="65" viewBox="0 0 64 65" fill="none" xmlns="http://www.w3.org/2000/svg">
<path d="M41.1289 48.824V55.3455C41.1289 56.4985 40.6708 57.6044 39.8555 58.4197C39.0402 59.235 37.9343 59.6931 36.7812 59.6931H28.0859C26.9329 59.6931 25.827 59.235 25.0117 58.4197C24.1963 57.6044 23.7383 56.4985 23.7383 55.3455V48.824" stroke="white" stroke-width="1.5"/>
<path d="M32.4336 1V5.34765" stroke="#DFAE4F" stroke-width="1.5"/>
<path d="M2 31.4336H6.34765" stroke="#DFAE4F" stroke-width="1.5"/>
<path d="M8.52148 9.69507L11.7098 12.7587" stroke="#DFAE4F" stroke-width="1.5"/>
<path d="M62.8672 31.4336H58.5195" stroke="#DFAE4F" stroke-width="1.5"/>
<path d="M56.3455 9.69507L53.1572 12.7587" stroke="#DFAE4F" stroke-width="1.5"/>
<path d="M23.4925 48.8241H41.3758C44.6054 47.221 47.3162 44.7379 49.1957 41.661C51.0751 38.5841 52.0468 35.0387 51.9986 31.4335C51.907 26.2733 49.8164 21.35 46.167 17.7006C42.5176 14.0512 37.5944 11.9606 32.4342 11.869C27.272 11.9607 22.347 14.0529 18.6973 17.7048C15.0476 21.3566 12.9583 26.2828 12.8697 31.445C12.8237 35.0483 13.7964 38.5913 15.6758 41.6659C17.5551 44.7406 20.2647 47.2219 23.4925 48.8241V48.8241Z" stroke="white" stroke-width="1.5"/>
<path d="M32.4336 37.9551V48.8242" stroke="#DFAE4F" stroke-width="1.5"/>
<path d="M25.9121 31.4336L32.4336 37.9551L38.9551 31.4336" stroke="#DFAE4F" stroke-width="1.5"/>
<path d="M32.4336 59.6934V64.0816" stroke="#DFAE4F" stroke-width="1.5"/>
</svg>
