<svg width="64" height="65" viewBox="0 0 64 65" fill="none" xmlns="http://www.w3.org/2000/svg">
<path d="M61.9663 16.9933H2C2 16.9933 2.00033 18.7831 2.00033 20.991V56.9706L2.00037 60.9683H61.9663V56.9706V20.991V16.9933Z" stroke="white" stroke-width="1.5"/>
<path d="M13.9941 30.9854H49.9737" stroke="#DFAE4F" stroke-width="1.5"/>
<path d="M13.9941 46.9761H49.9737" stroke="#DFAE4F" stroke-width="1.5"/>
<path d="M40.8904 7.73178C40.6248 6.93613 40.1156 6.24418 39.4349 5.75391C38.7543 5.26364 37.9367 4.99989 37.0979 5H26.869C26.0302 4.99989 25.2126 5.26364 24.5319 5.75391C23.8513 6.24418 23.3421 6.93613 23.0765 7.73178L19.9902 16.9932H43.9766L40.8904 7.73178Z" stroke="white" stroke-width="1.5"/>
<path d="M9.99512 16.9932V12.9955" stroke="#DFAE4F" stroke-width="1.5"/>
<path d="M53.9717 16.9932V12.9955" stroke="#DFAE4F" stroke-width="1.5"/>
</svg>
