<svg width="117" height="86" viewBox="0 0 117 86" fill="none" xmlns="http://www.w3.org/2000/svg">
<g clip-path="url(#clip0)">
<path d="M116.85 56.5C116.749 56.2778 116.57 56.1003 116.347 56.0008C116.124 55.9014 115.873 55.8868 115.64 55.96C113.26 56.532 110.921 57.2636 108.64 58.15C103.02 60.15 96.64 62.47 90.82 60.33C85.58 58.41 83.53 53.97 81.55 49.67C80.6468 47.4776 79.4816 45.4025 78.08 43.49C77.824 43.2313 77.4934 43.0594 77.1347 42.9984C76.7759 42.9374 76.407 42.9904 76.08 43.15C73.9287 44.499 71.9679 46.1301 70.25 48C67.38 50.85 64.42 53.81 60.09 54.61L59.71 54.68L59.54 54.33C59.35 53.91 59.14 53.5 58.93 53.09C58.53 52.28 58.11 51.46 57.78 50.59C57.6718 50.3741 57.5121 50.1882 57.3151 50.0486C57.118 49.9091 56.8896 49.8203 56.65 49.79C56.3691 49.7137 56.0743 49.7047 55.7893 49.7638C55.5043 49.8229 55.2373 49.9483 55.01 50.13C54.35 50.8 53.73 51.51 53.08 52.26C51.5578 54.2145 49.7231 55.9039 47.65 57.26L47.27 57.48L47 57.14C44.56 54 41.3 50.41 37.68 50C36.7307 49.93 35.7773 50.0584 34.8804 50.3769C33.9834 50.6954 33.1625 51.1971 32.47 51.85C31.0953 53.0449 29.7961 54.324 28.58 55.68C28.03 56.28 27.47 56.88 26.9 57.46L25.98 58.41L26.05 57.09C26.18 54.38 26.25 51.45 26.26 47.86C26.26 40.27 26.08 34.13 25.65 28.53C25.51 26.72 25.34 24.91 25.16 23.1C24.88 20.1 24.59 17.02 24.45 13.97C24.45 13.43 24.39 12.83 24.34 12.2C24.06 8.4 23.68 3.16 26.77 0.599996C26.82 0.599996 26.89 0.489996 26.77 0.309996C26.6818 0.176127 26.5486 0.078298 26.3945 0.0342633C26.2404 -0.00977137 26.0756 0.00290649 25.93 0.0699961C22.5 2.36 22.3 7 22.13 10.73V11C22.0398 15.1965 22.2102 19.3946 22.64 23.57C22.75 24.97 22.87 26.37 22.96 27.77C23.553 36.7582 23.6298 45.773 23.19 54.77C23.08 56.98 22.95 58.93 22.78 60.77V61.15L22.41 61.22C21.75 61.34 21.41 60.85 20.85 60.09L20.32 59.37C19.3255 57.9775 18.4587 56.4982 17.73 54.95C17.48 54.44 17.22 53.95 16.96 53.44C14.96 49.72 12.61 45.94 9.08998 45.94C8.14997 45.9583 7.22654 46.1909 6.38998 46.62C1.07998 49.16 0.189981 55 -1.90409e-05 60.82C-0.140019 65.46 1.56998 80.27 8.06998 84.37C10.48 85.89 13.35 85.81 16.6 84.13C21.6 81.57 23.23 75.72 24.39 70.44C24.9195 67.9461 25.3168 65.4259 25.58 62.89V62.67L25.75 62.54C28.3215 60.5381 30.7445 58.3523 33 56L33.85 55.14L34.27 54.71C35.27 53.66 36.4 52.48 38.36 52.85C40.65 53.28 43.15 56.91 44.65 59.07C44.94 59.49 45.19 59.85 45.38 60.07C45.6472 60.3384 45.9784 60.5343 46.3423 60.6393C46.7062 60.7443 47.0909 60.7549 47.46 60.67C51.06 59.22 53.16 56.99 55.54 54.23L56.02 53.67L56.37 54.32C56.7381 54.9687 57.0719 55.6363 57.37 56.32C57.5464 56.5877 57.7895 56.805 58.0752 56.9505C58.361 57.0961 58.6797 57.1648 59 57.15C64.76 56.76 68 53.61 71.38 50.27C72.919 48.6765 74.5918 47.2178 76.38 45.91L76.8 45.62L77.08 46.04C78.1604 47.742 79.1291 49.5124 79.98 51.34C82.34 56.16 84.57 60.71 91.22 62.58C98.3 64.58 105.78 61.49 112.38 58.78C113.83 58.18 115.2 57.61 116.52 57.12C116.77 57 116.93 56.78 116.85 56.5ZM22.3 64.88C21.9821 67.2029 21.5212 69.5039 20.92 71.77V71.89C20.03 75.23 18.36 81.46 13.52 82.55C13.0183 82.6667 12.5051 82.727 11.99 82.73C11.2516 82.7379 10.519 82.5998 9.83419 82.3235C9.14942 82.0472 8.52606 81.6382 7.99998 81.12C2.58998 76 2.93998 60.24 3.51998 56.66C3.88998 54.36 4.41998 51.95 6.38998 50.06C7.53998 49 8.56998 48.49 9.52998 48.64C11.1 48.88 12.06 50.64 13.07 52.44C13.57 53.35 14.07 54.31 14.49 55.23C16.17 58.68 17.91 62.23 21.73 64.23H21.84L22.36 64.38L22.3 64.88Z" fill="#13273A"/>
</g>
<defs>
<clipPath id="clip0">
<rect width="116.87" height="85.46" fill="white"/>
</clipPath>
</defs>
</svg>
