<svg width="1440" height="844" viewBox="0 0 1440 844" fill="none" xmlns="http://www.w3.org/2000/svg">
<mask id="mask0" mask-type="alpha" maskUnits="userSpaceOnUse" x="0" y="0" width="1440" height="844">
<rect width="1440" height="843.384" fill="#1E2027"/>
</mask>
<g mask="url(#mask0)">
<path d="M664.95 569.616C650.399 569.616 636.274 568.511 622.706 566.304C596.65 562.063 573.501 553.847 553.9 541.879C540.158 533.488 528.107 523.481 517.059 511.283C507.219 500.42 498.409 488.056 490.125 473.484C474.741 446.428 463.579 415.69 452.787 385.962C444.895 364.226 436.734 341.747 426.995 320.928C389.626 241.037 318.667 172.358 232.308 132.499C145.95 92.6395 41.9508 80.565 -53.0208 99.3742C-126.551 113.937 -195.249 146.969 -246.458 192.388L-246.683 192.188C-220.741 169.181 -190.686 149.444 -157.355 133.525C-124.657 117.908 -89.5739 106.325 -53.084 99.1014C-29.4067 94.4111 -4.93575 91.5682 19.6459 90.6487C43.9904 89.7376 68.651 90.7049 92.9386 93.5253C117.229 96.3457 141.34 101.039 164.606 107.478C188.1 113.979 210.927 122.314 232.457 132.251C253.987 142.189 274.793 153.993 294.291 167.336C313.601 180.549 331.799 195.383 348.371 211.422C364.943 227.461 380.029 244.839 393.202 263.066C406.505 281.47 417.973 300.904 427.289 320.821C437.034 341.652 445.195 364.136 453.091 385.878C474.675 445.323 496.989 506.792 554.077 541.649C591.234 564.338 642.266 573.531 697.769 567.53C747.656 562.139 795.333 546.092 841.442 530.572L1239.79 396.496C1272.96 385.33 1314.25 371.436 1354.76 362.334C1398.64 352.475 1437.45 349.134 1473.41 352.118C1490.6 353.543 1507.84 356.566 1524.66 361.096C1541.27 365.573 1557.52 371.537 1572.96 378.826C1588.39 386.111 1603.06 394.738 1616.53 404.465C1630.18 414.312 1642.65 425.318 1653.61 437.179L1653.37 437.356C1608.83 389.157 1543.23 358.189 1473.38 352.393C1391.81 345.625 1311.11 372.791 1239.9 396.757L841.553 530.834C795.428 546.359 747.732 562.412 697.807 567.808C686.661 569.015 675.689 569.616 664.95 569.616Z" fill="#30323A"/>
<path d="M643.771 571.869C631.003 571.869 618.506 570.958 606.361 569.136C580.069 565.19 556.625 557.089 536.689 545.063C523.035 536.826 511.051 526.973 500.057 514.947C490.264 504.236 481.489 492.029 473.227 477.638C457.888 450.91 446.726 420.518 435.931 391.128C428.206 370.095 420.222 348.347 410.78 328.171C373.942 249.445 304.69 181.542 220.783 141.871C136.148 101.857 34.2229 89.24 -58.8578 107.262C-131.815 121.285 -199.252 154.233 -248.747 200.036L-249.022 199.8C-199.477 153.949 -131.97 120.964 -58.94 106.927C-35.658 102.42 -11.6013 99.7566 12.5662 99.0115C36.4521 98.2747 60.648 99.4052 84.4834 102.372C108.268 105.33 131.882 110.141 154.665 116.671C177.624 123.25 199.932 131.627 220.963 141.57C263.129 161.507 301.155 187.953 333.984 220.178C366.72 252.313 392.677 288.602 411.131 328.042C420.576 348.229 428.566 369.985 436.291 391.024C457.875 449.802 480.196 510.58 536.898 544.784C575.101 567.831 626.607 576.399 681.93 568.911C722.967 563.357 762.284 549.351 800.304 535.808C810.929 532.023 821.917 528.109 832.81 524.426C979.316 475.02 1109.97 433.591 1232.23 397.767C1269.4 386.879 1309.26 375.879 1348.95 369.164C1392.96 361.721 1432.28 360.27 1469.14 364.729C1486.62 366.844 1504.31 370.5 1521.71 375.595C1538.75 380.583 1555.58 386.966 1571.75 394.573C1603.81 409.659 1633.34 429.697 1657.16 452.516L1656.88 452.746C1607.58 405.503 1539.14 373.545 1469.09 365.067C1388.09 355.264 1307.73 376.005 1232.35 398.09C1110.09 433.915 979.446 475.343 832.946 524.746C822.056 528.43 811.071 532.344 800.447 536.126C762.407 549.677 723.068 563.689 681.987 569.248C669.055 570.994 656.286 571.869 643.771 571.869Z" fill="#30323A"/>
<path d="M623.146 574.13C611.832 574.13 600.711 573.399 590.023 571.931C563.469 568.284 539.734 560.315 519.475 548.243C505.907 540.159 493.992 530.46 483.049 518.599C473.303 508.038 464.56 495.991 456.32 481.771C441.019 455.37 429.854 425.319 419.059 396.26C411.508 375.941 403.704 354.93 394.566 335.412C357.722 256.7 291.91 191.291 209.261 151.238C126.356 111.061 26.505 97.9036 -64.6944 115.141C-137.127 128.633 -203.299 161.496 -251.027 207.679L-251.355 207.409C-227.567 184.391 -199.087 164.603 -166.711 148.597C-134.711 132.777 -100.416 121.389 -64.7861 114.753C-41.8993 110.428 -18.2536 107.945 5.49643 107.374C28.9239 106.812 52.6581 108.105 76.035 111.215C99.3171 114.314 122.428 119.241 144.727 125.86C167.155 132.516 188.939 140.938 209.473 150.889C250.535 170.789 287.588 197.047 319.6 228.935C351.429 260.637 376.789 296.41 394.977 335.26C404.121 354.795 411.928 375.811 419.482 396.136C441.076 454.254 463.406 514.35 519.725 547.914C558.267 570.882 611.617 579.037 666.102 570.283C704.1 564.178 740.1 550.169 774.914 536.621C790.926 530.39 807.486 523.945 824.194 518.27C970.011 469.005 1101.02 430 1224.7 399.027C1257.01 390.934 1299.68 381.005 1343.2 376C1387.27 370.933 1427.07 371.368 1464.88 377.335C1500.24 382.914 1535.8 394.013 1570.56 410.32C1603.54 425.791 1634.72 445.68 1660.71 467.838L1660.4 468.125C1605.93 421.694 1534.63 388.743 1464.8 377.726C1382.1 364.676 1300.59 380.437 1224.82 399.409C1101.15 430.38 970.157 469.382 824.352 518.642C807.657 524.313 791.103 530.755 775.094 536.987C740.255 550.543 704.233 564.563 666.184 570.674C651.866 572.974 637.353 574.13 623.146 574.13Z" fill="#30323A"/>
<path d="M602.943 576.463C592.996 576.463 583.187 575.876 573.691 574.695C546.855 571.357 522.824 563.528 502.267 551.426C488.784 543.488 476.936 533.944 466.04 522.249C456.339 511.834 447.627 499.942 439.406 485.893C424.143 459.81 412.972 430.099 402.167 401.366C394.799 381.77 387.179 361.51 378.347 342.653C342.031 265.099 277.886 200.447 197.732 160.604C116.838 120.393 19.0582 106.696 -70.5348 123.023C-141.62 135.977 -208.238 169.617 -253.307 215.319L-253.692 215.018C-231.03 192.039 -203.334 172.243 -171.378 156.181C-139.796 140.308 -105.899 129.001 -70.6391 122.575C-25.5011 114.351 21.0092 113.527 67.5955 120.126C90.3874 123.354 112.996 128.385 134.792 135.075C156.698 141.798 177.96 150.253 197.982 160.208C237.934 180.066 274.013 206.135 305.216 237.688C336.137 268.957 360.899 304.213 378.818 342.478C387.656 361.349 395.277 381.618 402.651 401.223C424.26 458.691 446.606 518.113 502.549 551.049C541.872 574.2 595.715 581.713 650.266 571.663C687.123 564.873 720.103 550.886 755.024 536.075C774.575 527.783 794.79 519.209 815.568 512.123C884.756 488.705 952.43 467.68 1016.71 449.636C1085.72 430.265 1153.16 413.663 1217.16 400.295C1263.42 390.633 1301.65 385.093 1337.49 382.863C1381.51 380.122 1421.79 382.439 1460.62 389.947C1496.24 396.83 1532.82 408.989 1569.37 426.08C1603.07 441.841 1635.88 461.581 1664.26 483.166L1663.93 483.512C1603.66 437.671 1529.52 403.731 1460.51 390.391C1371.87 373.255 1287.81 386.004 1217.28 400.736C1093.92 426.499 958.83 464.118 815.751 512.545C794.993 519.623 774.787 528.193 755.246 536.483C721.836 550.652 687.287 565.306 650.374 572.105C634.646 575.004 618.618 576.463 602.943 576.463Z" fill="#30323A"/>
<path d="M583.184 578.868C546.738 578.868 512.538 570.592 485.053 554.609C471.656 546.817 459.871 537.422 449.022 525.888C439.365 515.618 430.682 503.879 422.477 489.996C407.245 464.227 396.064 434.851 385.247 406.442C378.066 387.579 370.641 368.075 362.126 349.896C326.329 273.487 263.85 209.588 186.2 169.974C107.127 129.633 11.4219 115.397 -76.3782 130.907C-147.078 143.398 -212.399 176.95 -255.59 222.962L-256.032 222.633C-245.288 211.186 -232.962 200.334 -219.4 190.377C-206.069 180.592 -191.486 171.627 -176.055 163.734C-145.298 148.001 -110.867 136.475 -76.4889 130.401C-32.1667 122.57 13.4677 122.097 59.1496 128.992C81.442 132.358 103.548 137.498 124.854 144.275C146.232 151.075 166.969 159.569 186.488 169.527C225.33 189.342 260.435 215.221 290.829 246.445C320.836 277.272 345.004 312.011 362.657 349.697C371.182 367.893 378.61 387.405 385.794 406.273C407.429 463.1 429.797 521.858 485.366 554.179C525.385 577.453 579.715 584.326 634.424 573.038C670.997 565.494 703.369 550.652 737.643 534.939C759.881 524.746 782.876 514.204 806.936 505.968C949.341 457.678 1084.82 422.549 1209.61 401.555C1254.46 394.01 1294.43 390.146 1331.8 389.742C1375.68 389.266 1416.41 393.459 1456.35 402.553C1492.09 410.688 1529.71 423.907 1568.17 441.841C1602.23 457.723 1636.67 477.308 1667.79 498.485L1667.44 498.893C1600.43 453.289 1523.44 418.353 1456.21 403.048C1382.05 386.162 1306.03 385.858 1209.72 402.055C1084.96 423.043 949.515 458.165 807.144 506.443C783.113 514.668 760.131 525.202 737.908 535.389C705.112 550.425 671.199 565.972 634.557 573.53C617.255 577.11 599.977 578.868 583.184 578.868Z" fill="#30323A"/>
<path d="M563.37 581.221C555.816 581.221 548.344 580.864 541.024 580.144C513.584 577.445 488.961 569.923 467.845 557.792C454.53 550.144 442.808 540.895 432.007 529.518C422.391 519.389 413.737 507.798 405.544 494.079C390.344 468.617 379.144 439.569 368.314 411.478C361.329 393.363 354.11 374.63 345.911 357.137C310.629 281.856 249.817 218.713 174.674 179.34C97.4259 138.865 3.79181 124.086 -82.2155 138.789C-151.534 150.642 -217.196 184.964 -257.866 230.602L-258.369 230.248C-238.211 207.626 -211.362 187.236 -180.729 171.284C-150.36 155.47 -116.337 144.039 -82.3356 138.227C-38.8292 130.789 5.9325 130.663 50.7069 137.856C72.5028 141.357 94.1057 146.612 114.921 153.473C135.772 160.346 155.987 168.883 175.003 178.845C212.736 198.616 246.867 224.306 276.451 255.201C305.545 285.584 329.114 319.806 346.509 356.915C354.714 374.425 361.939 393.167 368.927 411.29C390.591 467.486 412.994 525.595 468.2 557.308C508.844 580.659 563.661 586.893 618.598 574.414C655.344 566.068 689.039 549.514 721.627 533.508C746.095 521.49 771.397 509.061 798.325 499.818C940.038 451.675 1075.89 419.039 1202.09 402.823C1246.4 397.129 1286.99 395.112 1326.18 396.656C1369.76 398.374 1410.96 404.428 1452.11 415.167C1535.15 436.836 1617.17 480.773 1671.34 513.813L1670.98 514.286C1616.84 481.268 1534.89 437.365 1451.93 415.716C1374.11 395.411 1294.75 391.493 1202.19 403.388C1076.02 419.602 940.224 452.223 798.556 500.352C771.669 509.581 746.389 521.999 721.94 534.011C689.317 550.037 655.585 566.608 618.76 574.97C600.502 579.115 581.698 581.221 563.37 581.221Z" fill="#30323A"/>
<path d="M543.857 583.643C537.391 583.643 530.991 583.375 524.689 582.836C496.932 580.462 472.016 573.109 450.631 560.973C437.398 553.465 425.736 544.36 414.976 533.134C405.398 523.144 396.769 511.699 388.592 498.14C373.414 472.978 362.198 444.254 351.349 416.472C344.57 399.114 337.563 381.165 329.689 364.375C294.913 290.204 235.764 227.819 163.142 188.704C87.718 148.086 -3.8418 132.763 -88.0625 146.671C-157.074 158.068 -221.405 192.298 -260.15 238.242L-260.716 237.866C-241.658 215.263 -215.619 194.851 -185.412 178.834C-155.436 162.941 -121.817 151.604 -88.189 146.05C-45.4984 139 -1.61255 139.225 42.2575 146.716C63.5538 150.355 84.6572 155.72 104.983 162.669C125.308 169.617 144.998 178.193 163.509 188.164C236.261 227.346 295.511 289.842 330.344 364.133C338.227 380.943 345.237 398.9 352.02 416.267C373.724 471.848 396.165 529.321 451.013 560.441C492.23 583.828 547.534 589.424 602.75 575.794C639.935 566.616 673.719 548.971 706.389 531.911C732.814 518.11 760.14 503.839 789.686 493.669C858.103 470.383 926.596 451.017 993.264 436.108C1062.48 420.631 1130.2 409.856 1194.55 404.088C1238.49 400.149 1279.71 399.989 1320.55 403.599C1363.71 407.412 1405.34 415.322 1447.84 427.782C1527.63 451.169 1611.08 494.234 1674.87 529.139L1674.5 529.676C1610.74 494.788 1527.33 451.748 1447.62 428.381C1366.15 404.499 1283.4 396.758 1194.62 404.718C1067.07 416.154 930.918 446.279 789.945 494.259C760.453 504.41 733.152 518.667 706.752 532.454C674.041 549.536 640.22 567.201 602.943 576.402C583.525 581.193 563.414 583.64 543.857 583.643Z" fill="#30323A"/>
<path d="M524.474 586.086C519.048 586.086 513.669 585.895 508.357 585.509C480.281 583.471 455.07 576.286 433.423 564.156C420.269 556.783 408.664 547.818 397.942 536.745C388.402 526.889 379.795 515.585 371.627 502.183C356.472 477.317 345.231 448.905 334.36 421.429C327.799 404.845 321.013 387.697 313.471 371.619C279.192 298.542 221.709 236.909 151.61 198.071C78.017 157.297 -11.4686 141.438 -93.9027 154.553C-161.618 165.326 -226.19 200.32 -262.423 245.877L-263.056 245.48C-245.098 222.906 -219.869 202.469 -190.089 186.384C-160.514 170.41 -127.3 159.167 -94.0387 153.875C-52.1639 147.214 -9.1508 147.787 33.8086 155.579C54.6084 159.353 75.2091 164.834 95.0445 171.869C114.842 178.89 134.01 187.509 152.018 197.486C187.521 217.155 219.704 242.466 247.676 272.714C274.933 302.192 297.31 335.378 314.186 371.351C321.737 387.447 328.526 404.606 335.09 421.199C356.842 476.178 379.333 533.03 433.834 563.573C474.963 586.62 532.186 591.704 586.908 577.172C624.704 567.136 658.75 548.361 691.673 530.204C719.881 514.648 749.051 498.561 781.06 487.519C849.227 464.275 918.02 445.497 985.526 431.704C1054.83 417.543 1122.62 408.677 1187.02 405.354C1230.75 403.096 1272.6 404.802 1314.97 410.573C1357.51 416.365 1399.58 426.12 1443.58 440.393C1514.27 463.319 1588.02 499.79 1653.09 531.97C1661.86 536.309 1670.14 540.406 1678.4 544.461L1678.03 545.062C1669.77 541.005 1661.48 536.908 1652.71 532.569C1587.67 500.403 1513.95 463.943 1443.32 441.037C1355.8 412.651 1274.38 401.529 1187.06 406.04C1059.95 412.603 919.655 440.998 781.338 488.16C749.399 499.18 720.261 515.25 692.081 530.789C659.113 548.968 625.023 567.769 587.129 577.83C566.589 583.288 545.21 586.086 524.474 586.086Z" fill="#30323A"/>
<path d="M505.189 588.558C500.765 588.558 496.37 588.429 492.022 588.167C463.624 586.469 438.116 579.461 416.212 567.336C403.134 560.098 391.58 551.266 380.899 540.339C371.394 530.615 362.806 519.446 354.644 506.196C339.501 481.614 328.235 453.508 317.339 426.331C311.005 410.536 304.457 394.202 297.257 378.857C263.464 306.851 207.645 245.972 140.082 207.435C68.3225 166.504 -19.0888 150.102 -99.7427 162.435C-167.224 172.755 -230.43 207.654 -264.7 253.511L-265.398 253.098C-248.548 230.549 -224.124 210.089 -194.768 193.932C-165.598 177.875 -132.789 166.729 -99.885 161.698C-58.826 155.419 -16.6856 156.342 25.3662 164.44C45.6665 168.349 65.7707 173.942 85.116 181.067C104.379 188.164 123.026 196.825 140.531 206.808C174.918 226.421 206.127 251.543 233.292 281.473C259.625 310.487 281.406 343.153 298.025 378.57C305.235 393.932 311.789 410.275 318.126 426.081C339.935 480.478 362.486 536.728 416.655 566.703C458.264 589.73 515.99 594.156 571.07 578.55C609.488 567.662 643.825 547.765 677.026 528.523C706.977 511.167 737.946 493.219 772.438 481.366C840.095 458.112 909.183 439.907 977.78 427.259C1047.02 414.493 1114.88 407.547 1179.49 406.619C1182.7 406.574 1185.92 406.549 1189.12 406.549C1270.38 406.549 1350.17 421.39 1439.33 453.005C1494.67 472.627 1551.78 499.413 1607.01 525.317C1633.27 537.631 1658.07 549.264 1681.93 559.783L1681.56 560.452C1657.68 549.93 1632.88 538.294 1606.62 525.978C1551.4 500.083 1494.31 473.307 1439.02 453.7C1346.45 420.876 1263.99 406.158 1179.5 407.364C1050.18 409.22 909.521 435.051 772.741 482.061C738.332 493.888 707.401 511.811 677.485 529.147C644.233 548.414 609.852 568.34 571.323 579.259C549.682 585.394 527.067 588.558 505.189 588.558Z" fill="#30323A"/>
<path d="M485.992 591.055C482.533 591.055 479.099 590.976 475.684 590.813C446.96 589.458 421.158 582.63 398.998 570.522C385.99 563.413 374.489 554.713 363.84 543.926C354.366 534.329 345.794 523.295 337.636 510.189C322.502 485.879 311.201 458.075 300.273 431.181C294.183 416.191 287.885 400.691 281.029 386.1C247.711 315.141 193.555 255.018 128.54 216.801C58.6182 175.702 -26.7187 158.76 -105.596 170.32C-171.856 180.029 -235.204 215.682 -266.983 261.146L-267.751 260.721C-235.837 215.069 -172.245 179.273 -105.738 169.527C-65.4947 163.627 -24.2271 164.898 16.9173 173.303C36.7211 177.347 56.3226 183.055 75.1778 190.268C93.9223 197.438 112.044 206.141 129.043 216.132C162.311 235.686 192.546 260.617 218.911 290.235C244.315 318.774 265.497 350.925 281.87 385.794C288.732 400.405 295.034 415.915 301.13 430.911C323.008 484.746 345.63 540.411 399.476 569.839C441.537 592.823 499.763 596.597 555.228 579.933C594.44 568.151 629.242 547.084 662.895 526.712C694.427 507.624 727.031 487.887 763.811 475.219C831.277 451.987 900.677 434.407 970.087 422.959C1039.44 411.523 1107.36 406.453 1171.97 407.887C1254.72 409.726 1335.87 427.531 1435.08 465.622C1478.93 482.457 1524.87 503.597 1569.3 524.04C1610.11 542.824 1648.67 560.568 1685.46 575.105L1685.1 575.842C1648.28 561.293 1609.71 543.544 1568.88 524.755C1524.47 504.317 1478.55 483.186 1434.73 466.359C1335.62 428.31 1254.58 410.525 1171.95 408.689C1041.4 405.787 900.376 429.053 764.147 475.964C727.461 488.596 694.901 508.307 663.414 527.37C629.71 547.773 594.858 568.871 555.525 580.69C532.8 587.517 508.971 591.055 485.992 591.055Z" fill="#30323A"/>
<path d="M466.872 593.574C464.352 593.574 461.847 593.532 459.349 593.445C430.3 592.438 404.203 585.797 381.791 573.705C368.849 566.723 357.396 558.152 346.775 547.498C337.326 538.022 328.77 527.114 320.609 514.151C305.475 490.106 294.139 462.585 283.177 435.973C277.343 421.809 271.309 407.165 264.815 393.344C231.484 322.393 180.373 264.585 117.009 226.168C48.93 184.891 -34.3358 167.412 -111.436 178.205C-177.532 187.459 -239.479 223.01 -269.253 268.777L-270.094 268.344C-255.466 245.857 -232.658 225.347 -204.137 209.029C-175.789 192.813 -143.786 181.857 -111.587 177.35C-72.1568 171.83 -31.765 173.447 8.46869 182.158C27.7761 186.339 46.8779 192.16 65.2398 199.463C83.4594 206.706 101.059 215.452 117.552 225.451C149.698 244.94 178.959 269.683 204.524 298.992C228.995 327.047 249.58 358.678 265.709 393.009C272.211 406.85 278.25 421.503 284.087 435.675C306.041 488.967 328.745 544.076 382.294 572.966C424.785 595.891 483.51 599.01 539.383 581.309C579.44 568.618 614.763 546.376 648.926 524.864C681.982 504.05 716.16 482.528 755.183 469.067C822.468 445.854 892.187 428.912 962.403 418.71C1031.88 408.616 1099.86 405.402 1164.44 409.155C1208.2 411.697 1251.98 419.076 1298.29 431.71C1338.02 442.547 1380.13 457.333 1430.82 478.237C1465.23 492.429 1501.47 509.143 1536.51 525.309C1587.66 548.901 1640.55 573.295 1688.98 590.431L1688.63 591.232C1640.15 574.082 1587.24 549.677 1536.07 526.074C1501.03 509.913 1464.81 493.202 1430.42 479.018C1355.69 448.199 1265.64 415.899 1164.38 410.013C1034.49 402.466 889.3 423.721 755.534 469.868C716.625 483.293 682.494 504.784 649.485 525.567C615.269 547.113 579.889 569.392 539.706 582.121C515.94 589.652 490.916 593.574 466.872 593.574Z" fill="#30323A"/>
<path d="M1692.16 606.619C1632.68 587.821 1568.52 557.725 1506.47 528.615C1479.83 516.116 1452.28 503.193 1426.11 491.675C1330.56 449.628 1248.2 419.875 1156.81 411.335C1130.53 408.88 1103.65 407.665 1076.43 407.665C967.864 407.665 853.48 426.949 746.93 463.772C705.829 477.975 670.171 501.244 635.686 523.745C600.916 546.432 564.964 569.892 523.902 583.55C497.505 592.329 469.534 596.656 443.011 596.066C413.635 595.41 387.248 588.96 364.58 576.885C351.701 570.027 340.289 561.577 329.69 551.052C320.264 541.694 311.717 530.907 303.552 518.076C288.413 494.282 277.036 467.037 266.029 440.689C260.467 427.374 254.718 413.607 248.593 400.582C215.714 330.635 166.225 273.558 105.47 235.526C39.2445 194.069 -41.947 176.048 -117.282 186.086C-182.234 194.741 -244.219 231.038 -271.53 276.406L-272.443 275.97C-244.987 230.358 -182.695 193.87 -117.437 185.175C-78.8195 180.029 -39.3004 181.995 0.022644 191.016C18.8336 195.332 37.4358 201.268 55.3076 208.661C73.0023 215.98 90.0805 224.765 106.068 234.775C137.09 254.195 165.375 278.748 190.143 307.751C213.675 335.308 233.662 366.422 249.551 400.227C255.682 413.269 261.437 427.045 266.999 440.368C289.045 493.148 311.84 547.725 365.111 576.095C408.017 598.945 467.238 601.408 523.538 582.686C564.468 569.074 600.36 545.653 635.073 523.003C669.611 500.465 705.327 477.16 746.556 462.911C853.212 426.052 967.753 406.743 1076.43 406.743C1103.71 406.743 1130.6 407.958 1156.92 410.418C1200.83 414.521 1245.26 423.814 1292.75 438.824C1341.88 454.357 1390.07 474.786 1426.57 490.848C1452.75 502.369 1480.3 515.295 1506.95 527.797C1568.97 556.89 1633.1 586.972 1692.51 605.747L1692.16 606.619Z" fill="#30323A"/>
<path d="M1695.7 622.009C1625.55 602.266 1551.09 566.377 1479.09 531.669C1459.26 522.106 1440.52 513.074 1421.81 504.337C1330.17 461.548 1246.41 425.119 1149.24 412.662C1017.07 395.72 871.137 411.706 738.331 457.678C695.062 472.655 657.905 497.701 621.972 521.92C586.62 545.749 550.061 570.387 508.098 584.981C481.555 594.21 453.398 598.942 426.672 598.678C412.411 598.535 398.606 596.968 385.641 594.019C371.918 590.897 359.042 586.204 347.371 580.068C334.546 573.328 323.169 564.994 312.589 554.592C303.182 545.344 294.635 534.672 286.464 521.965C271.312 498.404 259.884 471.42 248.833 445.326C243.565 432.885 238.117 420.024 232.378 407.823C199.935 338.843 152.065 282.5 93.9377 244.89C29.5619 203.236 -49.5553 184.675 -123.126 193.968C-186.971 202.033 -248.928 239.069 -273.8 284.032L-274.79 283.599C-268.564 272.34 -260.02 261.447 -249.399 251.217C-239.075 241.274 -226.996 232.157 -213.504 224.124C-200.065 216.121 -185.554 209.389 -170.377 204.114C-154.876 198.729 -139.031 194.989 -123.281 192.998C-85.476 188.223 -46.8296 190.535 -8.41727 199.87C9.90039 204.322 27.9999 210.373 45.3816 217.858C62.5514 225.251 79.1046 234.081 94.5891 244.097C152.878 281.813 200.878 338.297 233.396 407.443C239.141 419.661 244.593 432.531 249.864 444.977C272.011 497.273 294.913 551.35 347.934 579.222C391.235 601.985 450.96 603.793 507.696 584.061C549.517 569.518 586.01 544.919 621.305 521.133C657.298 496.871 694.518 471.786 737.93 456.759C804.905 433.574 875.266 417.962 947.057 410.353C981.7 406.681 1016.5 404.937 1050.5 405.176C1084.27 405.41 1117.55 407.6 1149.4 411.683C1193.52 417.341 1238.6 428.558 1287.2 445.978C1330.12 461.362 1372.25 480.084 1422.32 503.46C1441.04 512.202 1459.78 521.234 1479.62 530.797C1551.57 565.483 1625.98 601.352 1696.04 621.067L1695.7 622.009Z" fill="#30323A"/>
<path d="M1699.24 637.398C1663.15 628.389 1622.77 613.997 1575.78 593.403C1534.32 575.226 1493.13 554.668 1453.29 534.785C1440.93 528.615 1429.26 522.789 1417.5 516.993C1326.96 472.354 1241.45 430.191 1141.67 413.983C1101.06 407.387 1058.64 404.139 1015.57 404.139C919.346 404.139 819.846 420.338 729.728 451.585C684.309 467.332 645.675 494.155 608.312 520.095C572.354 545.062 535.168 570.876 492.294 586.415C465.6 596.091 437.259 601.231 410.334 601.287C395.922 601.304 381.984 599.887 368.89 597.041C355.005 594.024 341.978 589.387 330.167 583.26C277.01 555.683 253.912 501.896 231.575 449.881C226.623 438.346 221.501 426.418 216.16 415.072C184.135 347.017 137.884 291.408 82.4 254.259C19.8866 212.4 -57.1563 193.302 -128.972 201.858C-192.754 209.456 -253.243 246.386 -276.07 291.661L-277.136 291.236C-271.473 280.002 -263.403 269.1 -253.152 258.831C-243.207 248.869 -231.441 239.732 -218.189 231.676C-191.492 215.449 -159.865 204.493 -129.127 200.832C-92.1315 196.423 -54.3611 199.083 -16.8625 208.734C0.958679 213.32 18.5586 219.489 35.447 227.065C52.0919 234.533 68.1234 243.402 83.0988 253.432C111.864 272.694 138.2 296.866 161.378 325.28C183.006 351.797 201.798 381.871 217.232 414.672C222.579 426.033 227.705 437.966 232.66 449.51C254.924 501.359 277.946 554.972 330.749 582.363C374.436 605.024 434.66 606.18 491.848 585.453C534.574 569.968 571.693 544.199 607.588 519.277C645.017 493.292 683.721 466.421 729.298 450.617C796.147 427.439 866.828 412.513 939.374 406.253C974.112 403.256 1009.03 402.322 1043.15 403.472C1076.92 404.614 1110.14 407.805 1141.88 412.963C1186.87 420.271 1231.28 433.051 1281.64 453.182C1328.33 471.845 1376 495.35 1418.06 516.088C1429.82 521.886 1441.5 527.713 1453.86 533.882C1535.04 574.397 1618.98 616.292 1699.55 636.4L1699.24 637.398Z" fill="#30323A"/>
<path d="M1702.78 652.786C1611.51 632.683 1514.36 582.208 1428.65 537.673C1423.46 534.976 1418.31 532.299 1413.19 529.647C1408.35 527.134 1403.53 524.631 1398.73 522.14C1311.36 476.758 1228.84 433.892 1134.1 415.3C1001.71 389.317 851.185 400.318 721.124 445.483C673.564 461.998 633.466 490.601 594.69 518.262C558.105 544.36 520.275 571.346 476.487 587.838C449.629 597.953 421.104 603.498 393.99 603.875C379.441 604.074 365.357 602.789 352.131 600.045C338.085 597.131 324.906 592.554 312.953 586.438C259.954 559.314 236.716 505.934 214.244 454.313C209.63 443.717 204.859 432.759 199.939 422.307C168.309 355.13 123.674 300.254 70.8615 263.615C10.2201 221.542 -64.7486 201.904 -134.819 209.735C-197.563 216.745 -257.923 254.403 -278.344 299.273L-279.485 298.862C-274.385 287.654 -266.787 276.741 -256.905 266.432C-247.337 256.45 -235.887 247.291 -222.872 239.213C-196.599 222.9 -165.38 212.046 -134.971 208.647C-98.7847 204.603 -61.8838 207.606 -25.3022 217.577C-7.97427 222.299 9.12598 228.583 25.5211 236.254C41.6411 243.796 57.1509 252.71 71.6204 262.749C99.2534 281.92 124.616 305.904 147 334.034C167.661 359.997 185.855 389.553 201.077 421.882C206.007 432.348 210.778 443.312 215.395 453.916C237.792 505.361 260.95 558.554 313.57 585.487C357.633 608.039 418.356 608.539 476.006 586.826C519.639 570.393 557.4 543.454 593.922 517.404C632.77 489.693 672.941 461.036 720.678 444.46C754.303 432.784 789.569 423.255 825.5 416.138C860.272 409.251 896 404.552 931.693 402.176C966.523 399.856 1001.55 399.73 1035.8 401.797C1069.58 403.835 1102.74 408.017 1134.37 414.225C1177.72 422.734 1220.53 436.44 1269.09 457.361C1312.34 475.99 1354.61 497.946 1399.36 521.189C1404.15 523.681 1408.97 526.183 1413.82 528.697C1418.94 531.349 1424.09 534.026 1429.28 536.722C1514.92 581.219 1611.98 631.654 1703.08 651.717L1702.78 652.786Z" fill="#30323A"/>
<path d="M1706.32 668.172C1661.38 659.495 1611.68 642.654 1554.39 616.686C1502.72 593.265 1450.7 565.008 1408.89 542.304C1398.78 536.812 1388.67 531.276 1378.9 525.922C1295.91 480.458 1217.52 437.514 1126.53 416.618C993.564 386.083 842.666 394.381 712.523 439.387C662.936 456.731 621.431 487.055 581.296 516.378C544.009 543.62 505.457 571.787 460.686 589.264C433.66 599.814 404.949 605.758 377.651 606.459C362.96 606.835 348.741 605.688 335.381 603.051C321.177 600.244 307.843 595.725 295.748 589.621C242.863 562.921 219.467 509.902 196.84 458.629C192.596 449.009 188.207 439.063 183.724 429.548C152.015 362.244 110.159 309.562 59.3231 272.973C0.562988 230.681 -72.3313 210.505 -140.669 217.62C-202.408 224.048 -262.572 262.428 -280.614 306.893L-281.835 306.502C-272.915 284.519 -253.639 263.3 -227.562 246.76C-201.715 230.363 -170.908 219.608 -140.818 216.475C-105.438 212.791 -69.4128 216.14 -33.7451 226.432C-16.9104 231.288 -0.312897 237.691 15.5921 245.455C31.1904 253.073 46.1785 262.029 60.1388 272.079C86.6367 291.152 111.022 314.947 132.622 342.799C152.303 368.183 169.899 397.219 184.922 429.103C189.412 438.63 193.804 448.585 198.051 458.207C220.596 509.295 243.907 562.123 296.393 588.617C340.826 611.048 402.049 610.896 460.167 588.206C504.774 570.792 543.259 542.675 580.477 515.484C620.691 486.102 662.278 455.719 712.055 438.307C745.743 426.66 781.161 417.335 817.329 410.592C852.225 404.088 888.126 399.929 924.031 398.228C958.975 396.575 994.105 397.236 1028.45 400.199C1062.24 403.115 1095.35 408.261 1126.86 415.496C1168.47 425.054 1209.49 439.457 1255.94 460.822C1297.21 479.811 1337.22 501.728 1379.59 524.935C1389.36 530.289 1399.47 535.825 1409.57 541.314C1496.6 588.58 1604.9 647.403 1706.6 667.039L1706.32 668.172Z" fill="#30323A"/>
<path d="M1709.87 683.562C1662.83 675.666 1611.57 658.986 1553.15 632.562C1499.69 608.385 1448.43 579.829 1404.59 554.961C1390.18 546.792 1375.89 538.536 1362.06 530.553C1282.39 484.549 1207.13 441.096 1118.96 417.94C1060.71 402.643 999.187 395.051 937.597 395.051C857.5 395.051 777.285 407.882 703.926 433.293C652.205 451.405 609.248 483.52 567.709 514.578C529.78 542.934 490.562 572.257 444.886 590.698C417.686 601.678 388.788 608.022 361.31 609.043C346.48 609.594 332.122 608.587 318.632 606.056C304.267 603.36 290.781 598.903 278.544 592.812C225.722 566.515 202.146 513.794 179.345 462.807C175.503 454.214 171.528 445.325 167.506 436.797C136.136 370.255 95.8545 318.29 47.7853 282.339C-9.08069 239.811 -79.9039 219.099 -146.512 225.51C-208.295 231.457 -266.922 269.719 -282.881 314.514L-284.181 314.148C-276.361 292.204 -257.92 270.954 -232.247 254.307C-206.828 237.826 -176.431 227.169 -146.661 224.303C-112.081 220.974 -76.9316 224.672 -42.184 235.287C-9.92178 245.143 21.493 261.092 48.6612 281.411C96.9012 317.486 137.309 369.608 168.765 436.327C172.79 444.867 176.768 453.758 180.613 462.357C203.326 513.147 226.81 565.666 279.211 591.755C324.011 614.056 385.734 613.249 444.323 589.595C489.831 571.222 528.977 541.955 566.833 513.65C608.458 482.53 651.5 450.35 703.43 432.166C737.134 420.49 772.688 411.34 809.105 404.966C844.096 398.841 880.168 395.228 916.313 394.227C951.349 393.257 986.586 394.73 1021.06 398.611C1054.86 402.412 1087.92 408.525 1119.34 416.779C1207.7 439.986 1283.04 483.486 1362.8 529.538C1376.63 537.521 1390.92 545.774 1405.32 553.94C1503.23 609.473 1607.42 665.13 1710.12 682.373L1709.87 683.562Z" fill="#30323A"/>
<path d="M1713.41 698.949C1607.85 683.706 1500.53 626.82 1400.28 567.617C1382.26 556.98 1364.49 546.182 1347.31 535.744C1270.2 488.9 1197.37 444.654 1111.38 419.259C1048.2 400.602 981.359 391.311 914.871 391.311C839.296 391.311 764.172 403.309 695.319 427.2C641.46 446.079 597.059 479.994 554.118 512.787C515.542 542.251 475.653 572.715 429.076 592.126C401.699 603.534 372.611 610.275 344.959 611.616C329.987 612.341 315.492 611.481 301.877 609.054C287.354 606.467 273.713 602.072 261.333 595.998C208.505 570.069 184.73 517.573 161.739 466.806C158.336 459.293 154.817 451.523 151.288 444.041C119.782 377.254 82.1503 327.423 36.2408 291.698C-18.7217 248.928 -87.4643 227.675 -152.365 233.392C-213.212 238.751 -271.542 277.728 -285.155 322.126L-286.533 321.791C-279.817 299.889 -262.205 278.599 -236.94 261.849C-211.95 245.281 -181.965 234.725 -152.507 232.129C-118.73 229.154 -84.4509 233.192 -50.6266 244.136C-19.3668 254.251 10.9951 270.366 37.1799 290.741C61.3979 309.587 83.8325 333.002 103.861 360.334C121.527 384.441 137.925 412.44 152.6 443.548C156.136 451.039 159.655 458.812 163.06 466.331C185.96 516.893 209.64 569.175 262.023 594.885C307.186 617.051 369.408 615.589 428.469 590.976C474.868 571.641 514.682 541.23 553.186 511.823C596.215 478.959 640.711 444.974 694.794 426.016C728.523 414.313 764.21 405.337 800.864 399.342C835.95 393.6 872.187 390.54 908.566 390.245C943.681 389.961 979.039 392.247 1013.64 397.044C1047.45 401.729 1080.48 408.798 1111.82 418.055C1198.01 443.506 1270.92 487.8 1348.11 534.698C1365.29 545.136 1383.06 555.931 1401.07 566.563C1501.18 625.687 1608.34 682.497 1713.64 697.701L1713.41 698.949Z" fill="#30323A"/>
<path d="M1716.95 714.336C1665.9 708.082 1611.5 691.722 1550.65 664.32C1491.81 637.823 1437.08 605.483 1395.97 580.271C1374.85 567.316 1354.12 554.094 1334.07 541.308C1258.99 493.418 1188.08 448.185 1103.8 420.572C969.852 376.686 813.933 376.883 686.715 421.098C630.718 440.748 584.872 476.465 540.534 511.007C501.306 541.567 460.74 573.171 413.271 593.552C385.711 605.387 356.437 612.518 328.615 614.177C313.503 615.08 298.872 614.36 285.127 612.04C270.446 609.563 256.65 605.235 244.125 599.176C191.215 573.581 167.215 521.223 144.006 470.588C141.087 464.222 138.07 457.636 135.066 451.275C103.816 385.082 67.7151 335.943 24.6957 301.047C-28.3474 258.021 -95.0157 236.234 -158.215 241.271C-218.164 246.048 -276.127 285.73 -287.425 329.729L-288.88 329.434C-283.267 307.574 -266.483 286.248 -241.626 269.385C-217.07 252.727 -187.496 242.272 -158.345 239.949C-125.365 237.32 -91.9612 241.707 -59.0602 252.98C-28.7996 263.35 0.512451 279.631 25.7044 300.069C48.7746 318.785 70.2353 342.009 89.4858 369.096C106.339 392.812 121.701 419.526 136.445 450.761C139.452 457.13 142.472 463.716 145.39 470.087C168.502 520.506 192.397 572.642 244.84 598.009C290.366 620.032 353.089 617.917 412.623 592.354C459.908 572.052 500.395 540.51 539.55 510.006C561.751 492.71 584.711 474.826 608.679 459.157C635.588 441.571 660.935 428.715 686.168 419.86C719.929 408.126 755.745 399.33 792.624 393.718C827.805 388.364 864.203 385.858 900.806 386.277C970.384 387.073 1040.76 398.501 1104.31 419.323C1188.78 446.999 1259.78 492.282 1334.94 540.226C1354.98 553.009 1375.7 566.225 1396.82 579.174C1492.12 637.629 1604.71 699.242 1717.15 713.017L1716.95 714.336Z" fill="#30323A"/>
<path d="M1720.5 729.723C1692.97 726.914 1663.9 720.986 1634.1 712.109C1607.13 704.073 1578.64 693.339 1549.41 680.202C1501.86 658.837 1451.74 631.102 1391.66 592.925C1367.8 577.76 1344.5 562.19 1321.96 547.132C1248.5 498.055 1179.12 451.697 1096.22 421.885C1025.36 396.398 948.55 383.589 873.218 383.589C805.183 383.589 738.354 394.027 678.114 414.999C619.974 435.422 572.682 472.95 526.944 509.244C487.058 540.892 445.815 573.621 397.468 594.977C369.721 607.235 340.257 614.757 312.267 616.736C280.375 618.991 251.657 614.152 226.917 602.364C173.827 577.062 149.577 524.735 126.128 474.131C123.747 468.991 121.283 463.676 118.845 458.522C87.3643 391.887 53.7772 344.824 13.1482 310.408C-37.9566 267.118 -102.551 244.794 -164.071 249.161C-224.172 253.427 -280.529 292.982 -289.702 337.338L-291.235 337.088C-286.723 315.273 -270.774 293.908 -246.325 276.926C-234.6 268.783 -221.588 262.113 -207.653 257.102C-193.307 251.942 -178.683 248.804 -164.194 247.778C-132.008 245.494 -99.4771 250.221 -67.5026 261.832C-38.2348 272.458 -9.97256 288.908 14.2233 309.404C55.0135 343.957 88.7145 391.17 120.281 457.985C122.719 463.142 125.182 468.462 127.566 473.602C150.915 523.981 175.054 576.075 227.651 601.144C273.542 623.015 336.763 620.246 396.772 593.74C444.93 572.468 486.093 539.804 525.903 508.215C548.809 490.038 572.496 471.24 597.27 454.807C625.077 436.361 651.335 422.92 677.539 413.714C711.334 401.948 747.28 393.332 784.374 388.111C819.65 383.142 856.203 381.202 893.022 382.338C962.716 384.492 1033.18 397.725 1096.8 420.606C1179.88 450.485 1249.35 496.894 1322.89 546.03C1345.42 561.082 1368.72 576.646 1392.56 591.803C1482.51 648.967 1601.1 716.15 1720.67 728.351L1720.5 729.723Z" fill="#30323A"/>
<path d="M1724.04 745.11C1695.58 742.751 1665.63 737.096 1635.03 728.303C1607.24 720.317 1578.01 709.477 1548.15 696.084C1499.26 674.156 1446.66 644.552 1387.36 605.578C1361.04 588.285 1335.44 570.415 1310.69 553.133C1238.54 502.768 1170.4 455.195 1088.65 423.201C1013.93 393.96 932.856 379.188 853.951 379.188C789.487 379.188 726.48 389.039 669.513 408.902C609.225 430.099 560.483 469.446 513.346 507.5C472.806 540.229 430.884 574.071 381.67 596.403C353.73 609.079 324.08 616.992 295.925 619.287C263.732 621.907 234.724 617.285 209.715 605.548C185.801 594.322 165.491 576.413 147.626 550.793C131.844 528.16 119.759 502.332 108.072 477.351C106.288 473.538 104.445 469.595 102.63 465.757C81.2356 420.504 50.4152 363.017 1.60611 319.755C-47.5477 276.19 -110.067 253.331 -169.918 257.037C-197.722 258.758 -226.911 269.165 -249.997 285.587C-273.712 302.456 -288.618 323.531 -291.97 344.933L-293.579 344.734C-291.846 333.669 -287.094 322.691 -279.457 312.104C-272.172 302.003 -262.601 292.704 -251.009 284.457C-239.53 276.291 -226.734 269.629 -212.973 264.655C-198.791 259.529 -184.344 256.481 -170.029 255.592C-138.633 253.646 -106.975 258.719 -75.9301 270.667C-47.652 281.549 -20.4427 298.171 2.75708 318.729C23.8194 337.397 42.7821 359.606 60.7329 386.626C75.5281 408.897 89.3177 433.861 104.132 465.195C105.947 469.036 107.793 472.978 109.577 476.791C133.188 527.26 157.602 579.447 210.477 604.262C256.735 625.973 320.456 622.554 380.936 595.112C429.957 572.87 471.797 539.093 512.262 506.429C535.876 487.367 560.293 467.655 585.871 450.452C614.579 431.142 641.747 417.113 668.925 407.558C702.761 395.759 738.831 387.329 776.13 382.498C811.501 377.92 848.205 376.542 885.23 378.404C955.038 381.913 1025.61 396.946 1089.3 421.877C1171.24 453.947 1239.47 501.573 1311.69 551.994C1336.44 569.271 1362.03 587.132 1388.32 604.414C1471.61 659.149 1597.05 733.134 1724.2 743.668L1724.04 745.11Z" fill="#30323A"/>
<path d="M1727.59 760.494C1698.2 758.588 1667.37 753.206 1635.97 744.494C1607.36 736.559 1577.39 725.615 1546.9 711.966C1496.15 689.251 1442.55 658.589 1383.05 618.232C1354.5 598.866 1326.82 578.724 1300.05 559.246C1228.98 507.526 1161.85 458.674 1081.07 424.514C1002.79 391.417 917.783 374.616 835.684 374.616C774.49 374.616 714.923 383.943 660.913 402.809C598.472 424.781 548.278 465.959 499.737 505.782C458.539 539.579 415.94 574.526 365.87 597.834C337.737 610.929 307.9 619.227 279.581 621.834C273.004 622.439 266.556 622.742 260.248 622.742C235.391 622.742 212.679 618.052 192.511 608.733C168.404 597.595 147.885 579.649 129.783 553.872C113.814 531.129 101.606 505.231 89.802 480.185C88.67 477.784 87.5412 475.388 86.4124 473.003C63.7153 425.037 34.5171 370.432 -9.9411 329.11C-57.1218 285.258 -117.564 261.865 -175.771 264.925C-203.255 266.37 -231.998 276.662 -254.632 293.16C-277.908 310.127 -291.975 331.214 -294.243 352.537L-295.925 352.396C-294.752 341.356 -290.477 330.364 -283.22 319.724C-276.317 309.604 -267.059 300.277 -255.704 291.998C-232.798 275.304 -203.701 264.888 -175.869 263.426C-145.26 261.818 -114.475 267.231 -84.3658 279.519C-57.068 290.66 -30.9117 307.45 -8.72055 328.073C11.1686 346.558 29.1827 368.582 46.3525 395.405C59.886 416.545 73.1096 441.017 87.968 472.421C89.0969 474.806 90.2257 477.202 91.3577 479.606C115.263 530.325 139.983 582.771 193.286 607.4C239.913 628.946 304.137 624.871 365.082 596.501C414.954 573.286 457.47 538.406 498.586 504.677C522.909 484.724 548.06 464.092 574.444 446.116C604.056 425.94 632.135 411.318 660.29 401.411C694.171 389.576 730.36 381.331 767.859 376.899C803.321 372.71 840.174 371.9 877.395 374.49C947.317 379.354 1017.99 396.184 1081.79 423.159C1162.76 457.397 1229.97 506.305 1301.12 558.084C1327.87 577.554 1355.54 597.688 1384.07 617.04C1517.18 707.32 1626.37 752.43 1727.7 758.998L1727.59 760.494Z" fill="#30323A"/>
<path d="M1731.13 775.881C1700.81 774.43 1669.1 769.318 1636.9 760.691C1607.48 752.809 1576.77 741.761 1545.64 727.853C1493.14 704.399 1438.55 672.68 1378.74 630.886C1348.12 609.487 1318.53 587.087 1289.91 565.424C1219.73 512.303 1153.44 462.127 1073.48 425.825C936.028 363.416 778.578 352.531 652.308 396.71C587.705 419.461 536.056 462.478 486.105 504.076C444.253 538.932 400.977 574.973 350.065 599.257C321.737 612.769 291.713 621.452 263.233 624.371C230.452 627.731 200.868 623.538 175.306 611.917C150.917 600.829 130.124 582.771 111.733 556.715C95.5375 533.767 83.1993 507.709 71.2658 482.508L70.1938 480.241C47.9268 433.226 20.6416 379.619 -21.4893 338.457C-66.6779 294.31 -125.049 270.377 -181.624 272.804C-208.789 273.968 -237.086 284.145 -259.268 300.724C-281.775 317.545 -295.35 339.197 -296.52 360.129L-298.271 360.053C-297.658 349.036 -293.86 338.03 -286.983 327.339C-280.46 317.196 -271.514 307.841 -260.397 299.532C-237.927 282.739 -209.248 272.43 -181.709 271.249C-151.885 269.972 -121.969 275.726 -92.7963 288.36C-66.4787 299.756 -41.3722 316.718 -20.1929 337.408C22.1278 378.753 49.4888 432.503 71.8096 479.64L72.8816 481.906C97.1154 533.086 122.174 586.01 176.1 610.53C223.103 631.901 287.827 627.174 349.234 597.885C399.943 573.699 443.133 537.729 484.904 502.939C509.938 482.092 535.822 460.532 563.016 441.782C593.532 420.738 622.531 405.519 651.663 395.261C685.592 383.389 721.901 375.33 759.586 371.301C795.14 367.502 832.136 367.257 869.546 370.581C939.576 376.798 1010.37 395.422 1074.28 424.438C1110.77 441.006 1146.53 461.32 1186.8 488.362C1222.32 512.216 1255.7 537.484 1291.04 564.237C1319.65 585.889 1349.22 608.278 1379.82 629.66C1511.98 722.01 1626.92 769.329 1731.22 774.323L1731.13 775.881Z" fill="#30323A"/>
<path d="M1734.68 791.268C1703.43 790.273 1670.85 785.434 1637.83 776.888C1607.6 769.065 1576.16 757.913 1544.38 743.741C1490.21 719.583 1434.62 686.81 1374.43 643.543C1341.87 620.133 1310.49 595.478 1280.14 571.635C1210.71 517.084 1145.13 465.56 1065.91 427.141C927.633 360.084 769.8 346.429 643.711 390.619C576.938 414.152 523.826 459.017 472.465 502.402C429.961 538.305 386.008 575.432 334.268 600.691C305.743 614.616 275.53 623.685 246.888 626.91C213.82 630.636 183.948 626.665 158.102 615.108C133.77 604.229 112.967 586.46 94.5007 560.784C78.8265 538.989 66.874 514.696 53.9761 487.491C28.6039 433.965 4.54083 386.508 -33.0399 347.81C-76.2143 303.353 -132.502 278.889 -187.477 280.694C-214.322 281.574 -242.177 291.633 -263.9 308.294C-285.968 325.219 -298.689 346.879 -298.793 367.727L-300.614 367.718C-300.557 356.727 -297.237 345.704 -290.746 334.959C-284.69 324.94 -275.821 315.295 -265.089 307.068C-243.059 290.173 -214.794 279.972 -187.543 279.077C-158.494 278.124 -129.45 284.223 -101.223 297.203C-75.876 308.859 -51.8224 325.992 -31.6613 346.753C6.09338 385.631 30.2197 433.206 55.6551 486.864C77.2676 532.448 104.164 589.176 158.921 613.663C227.224 644.203 303.688 613.772 333.392 599.271C384.924 574.113 428.791 537.062 471.209 501.23C496.955 479.482 523.579 456.995 551.582 437.463C583.009 415.544 612.925 399.73 643.041 389.117C677.023 377.209 713.45 369.335 751.312 365.711C786.954 362.3 824.089 362.629 861.679 366.684C931.816 374.251 1002.74 394.668 1066.78 425.723C1102.44 443.014 1138.9 464.829 1178.26 492.414C1213.43 517.067 1247.96 544.194 1281.35 570.426C1311.68 594.258 1343.05 618.901 1375.58 642.288C1508.71 737.99 1626.19 786.196 1734.74 789.657L1734.68 791.268Z" fill="#30323A"/>
<path d="M1738.22 806.652C1706.05 806.113 1672.59 801.546 1638.76 793.082C1607.73 785.318 1575.55 774.062 1543.12 759.625C1513.83 746.589 1483.52 730.589 1453.01 712.073C1426.11 695.746 1398.23 676.946 1370.13 656.193C1335.73 630.79 1302.65 603.874 1270.67 577.841C1201.87 521.844 1136.88 468.951 1058.33 428.448C919.25 356.738 761.038 340.316 635.107 384.517C566.156 408.838 511.579 455.555 458.795 500.738C415.64 537.678 371.017 575.879 318.464 602.111C289.74 616.449 259.337 625.895 230.541 629.429C221.823 630.501 213.317 631.035 205.052 631.035C181.694 631.035 160.198 626.772 140.897 618.288C116.929 607.752 96.3537 590.61 78.0013 565.879C61.4196 543.533 48.5343 517.435 37.7581 494.726L35.7281 490.446C13.6286 443.841 -9.22028 395.65 -44.5908 357.148C-85.7256 312.374 -139.945 287.381 -193.333 288.571C-223.141 289.237 -254.954 302.276 -276.352 322.601C-293.12 338.528 -301.898 357.247 -301.073 375.308L-302.957 375.375C-303.808 356.862 -294.847 337.712 -277.731 321.453C-267.188 311.44 -253.965 302.956 -239.492 296.922C-224.577 290.702 -208.631 287.235 -193.383 286.895C-165.102 286.265 -136.935 292.704 -109.653 306.036C-85.2703 317.953 -62.2665 335.26 -43.1331 356.085C-7.58865 394.775 15.314 443.079 37.464 489.794L39.494 494.073C64.0694 545.858 90.3806 594.213 141.732 616.784C210.595 647.052 287.622 615.583 317.541 600.646C369.882 574.52 414.419 536.396 457.486 499.529C483.949 476.878 511.31 453.455 540.132 433.138C572.474 410.342 603.313 393.926 634.411 382.956C668.448 371.008 704.991 363.321 743.021 360.107C778.752 357.087 816.02 357.984 853.781 362.775C924.019 371.689 995.076 393.895 1059.27 426.994C1094.62 445.221 1130.78 467.934 1169.83 496.43C1204.71 521.884 1238.89 549.699 1271.94 576.601C1303.91 602.617 1336.96 629.522 1371.33 654.9C1505.51 753.99 1625.54 803.078 1738.26 804.974L1738.22 806.652Z" fill="#30323A"/>
<path d="M1741.77 822.037C1708.67 821.952 1674.33 817.659 1639.69 809.276C1607.85 801.571 1574.94 790.211 1541.86 775.51C1511.88 762.19 1480.98 745.771 1450 726.714C1422.5 709.801 1394.18 690.331 1365.82 668.842C1329.66 641.448 1294.97 612.254 1261.42 584.019C1193.15 526.571 1128.68 472.309 1050.74 429.753C960.524 380.488 862.492 355.014 770.515 355.014C719.91 355.014 671.148 362.722 626.503 378.418C555.364 403.526 499.314 452.114 445.107 499.101C401.306 537.068 356.01 576.331 302.66 603.534C273.741 618.283 243.148 628.108 214.193 631.946C204.786 633.195 195.626 633.816 186.734 633.816C163.841 633.816 142.725 629.691 123.689 621.472C71.0005 598.723 43.3327 547.858 21.5337 501.967C19.0641 496.765 16.5724 491.467 14.1661 486.343C-5.36893 444.774 -25.568 401.794 -56.1511 366.49C-95.218 321.389 -147.369 295.845 -199.198 296.452C-228.678 296.79 -259.925 309.7 -280.75 330.145C-297.073 346.171 -305.101 364.904 -303.359 382.895L-305.303 383.044C-307.093 364.569 -298.888 345.369 -282.199 328.981C-271.969 318.937 -259.014 310.453 -244.738 304.447C-230.015 298.255 -214.278 294.889 -199.227 294.718C-171.714 294.403 -144.416 301.185 -118.083 314.874C-94.6584 327.052 -72.7075 344.534 -54.6081 365.43C-23.8731 400.914 -3.6203 444.004 15.9622 485.674C18.3685 490.795 20.857 496.092 23.3266 501.292C44.9865 546.893 72.4582 597.427 124.537 619.911C193.975 649.892 271.552 617.394 301.683 602.03C354.818 574.934 400.023 535.752 443.738 497.858C470.919 474.297 499.026 449.934 528.664 428.831C561.922 405.151 593.688 388.133 625.779 376.807C659.875 364.819 696.526 357.317 734.721 354.511C770.54 351.879 807.934 353.349 845.86 358.878C916.199 369.133 987.396 393.13 1051.76 428.277C1086.82 447.423 1122.71 471.024 1161.49 500.428C1196.11 526.681 1229.99 555.191 1262.75 582.762C1296.28 610.98 1330.96 640.16 1367.08 667.523C1500.51 768.607 1626.58 820.009 1741.77 820.302L1741.77 822.037Z" fill="#30323A"/>
<path d="M1740.97 837.446C1708.3 837.446 1674.56 833.422 1640.62 825.473C1607.98 817.83 1574.33 806.366 1540.59 791.401C1482.53 765.64 1422.27 728.663 1361.51 681.496C1323.65 652.111 1287.4 620.617 1252.34 590.161C1187.53 533.857 1120.5 475.636 1043.16 431.066C950.412 377.622 849.663 349.871 755.773 349.871C707.309 349.871 660.681 357.261 617.899 372.325C544.565 398.226 487.032 448.689 431.396 497.493C386.951 536.478 340.994 576.79 286.86 604.963C257.74 620.119 226.958 630.318 197.848 634.46C163.948 639.283 133.21 635.987 106.488 624.66C83.228 614.802 63.1174 598.909 45.0053 576.073C27.5319 554.044 14.6182 528.767 5.31549 509.21C1.3345 500.839 -2.60223 492.288 -6.41248 484.018C-23.5634 446.782 -41.3023 408.278 -67.7053 375.831C-104.676 330.393 -154.737 304.335 -205.054 304.337C-234.174 304.34 -264.839 317.098 -285.086 337.634C-300.997 353.771 -308.298 372.541 -305.639 390.479L-307.64 390.712C-310.375 372.252 -302.904 352.981 -286.603 336.45C-265.984 315.537 -234.736 302.543 -205.054 302.541C-178.304 302.538 -151.872 309.66 -126.497 323.709C-104.021 336.152 -83.1265 353.811 -66.0674 374.774C-39.5221 407.395 -21.742 446.001 -4.5437 483.332C-0.736633 491.596 3.20007 500.142 7.17474 508.505C28.3983 553.136 56.8977 601.647 107.357 623.032C177.384 652.715 255.505 619.194 285.841 603.405C339.757 575.345 385.626 535.111 429.98 496.205C457.881 471.73 486.735 446.422 517.195 424.526C551.373 399.958 584.069 382.332 617.156 370.649C651.312 358.619 688.074 351.305 726.423 348.91C762.328 346.666 799.846 348.707 837.932 354.975C908.367 366.569 979.712 392.357 1044.26 429.551C1079.05 449.6 1114.7 474.075 1153.23 504.379C1187.62 531.422 1221.24 560.627 1253.75 588.867C1288.79 619.307 1325.02 650.784 1362.84 680.135C1495.79 783.339 1622.97 835.644 1740.92 835.644C1742.38 835.644 1743.84 835.635 1745.29 835.619L1745.32 837.413C1743.87 837.438 1742.42 837.446 1740.97 837.446Z" fill="#30323A"/>
<path d="M1739.29 852.92C1707.34 852.92 1674.5 849.15 1641.53 841.69C1608.07 834.117 1573.67 822.56 1539.27 807.342C1479.56 780.918 1418.3 742.833 1357.2 694.147C1317.33 662.563 1279.25 628.465 1242.43 595.489C1178.31 538.072 1112.01 478.701 1035.58 432.374C894.204 346.674 734.848 321.946 609.302 366.228C533.761 392.925 474.742 445.278 417.667 495.904C372.583 535.896 325.965 577.248 271.063 606.388C241.744 621.95 210.775 632.523 181.508 636.966C147.339 642.151 116.313 639.083 89.2902 627.849C66.3781 618.322 46.4984 603.054 28.5159 581.171C14.5555 564.181 2.03384 543.617 -10.8989 516.454C-16.1478 505.428 -21.2007 494.113 -26.0861 483.172C-41.0425 449.684 -56.508 415.055 -79.2557 385.17C-113.592 340.058 -162.809 312.787 -210.913 312.222C-239.631 311.882 -269.699 324.468 -289.373 345.063C-304.911 361.33 -311.501 380.153 -307.924 398.065L-309.977 398.389C-313.663 379.923 -306.909 360.559 -290.963 343.862C-281.354 333.801 -268.949 325.354 -255.096 319.44C-240.798 313.336 -225.512 310.197 -210.891 310.369C-184.893 310.675 -159.331 318.138 -134.92 332.55C-113.387 345.262 -93.5449 363.099 -77.5387 384.129C-54.6646 414.183 -39.1548 448.905 -24.1573 482.486C-19.2751 493.418 -14.2253 504.72 -8.98584 515.728C10.1382 555.906 38.6913 604.766 90.166 626.168C160.8 655.536 239.452 621.005 269.991 604.797C324.672 575.775 371.198 534.504 416.194 494.591C444.823 469.196 474.426 442.938 505.711 420.243C540.812 394.781 574.444 376.548 608.531 364.505C642.75 352.436 679.619 345.307 718.114 343.322C754.104 341.466 791.739 344.079 829.977 351.086C900.503 364.015 972.003 391.595 1036.75 430.841C1071.12 451.678 1106.37 476.901 1144.51 507.951C1178.54 535.648 1211.77 565.407 1243.9 594.182C1280.7 627.138 1318.76 661.213 1358.59 692.763C1490.46 797.84 1618.43 851.067 1739.09 851.067C1742.34 851.067 1745.56 851.028 1748.8 850.952L1748.86 852.802C1745.68 852.884 1742.49 852.92 1739.29 852.92Z" fill="#30323A"/>
<path d="M1737.75 868.453C1706.5 868.453 1674.53 864.908 1642.47 857.875C1608.22 850.361 1573.09 838.697 1538.03 823.204C1476.94 796.2 1414.65 757.036 1352.89 706.8C1311.6 673.304 1272.19 636.985 1234.07 601.861C1170.15 542.953 1104.05 482.041 1028 433.684C930.615 371.759 824.94 339.351 727.71 339.351C683.05 339.351 640.185 346.184 600.704 360.132C522.947 387.63 462.435 441.878 403.915 494.343C358.198 535.33 310.923 577.712 255.268 607.817C225.754 623.78 194.598 634.724 165.169 639.462C153.76 641.299 142.693 642.215 131.999 642.215C110.418 642.215 90.3648 638.481 72.0914 631.035C49.8339 621.966 29.6253 606.9 12.0286 586.263C-2.19736 569.58 -15.0004 549.112 -27.1142 523.697C-33.4224 510.461 -39.2722 496.795 -44.9322 483.582C-57.8807 453.348 -71.2688 422.085 -90.8101 394.505C-123.076 348.966 -170.165 321.153 -216.77 320.106C-244.57 319.389 -274.708 332.032 -293.531 352.317C-308.794 368.762 -314.717 387.703 -310.208 405.649L-312.304 406.065C-316.962 387.531 -310.881 368.011 -295.188 351.103C-285.873 341.067 -273.759 332.679 -260.153 326.847C-246.094 320.821 -231.072 317.829 -216.713 318.2C-191.477 318.765 -166.784 326.557 -143.325 341.359C-122.744 354.348 -103.955 372.372 -88.992 393.49C-69.3368 421.23 -55.9108 452.583 -42.9243 482.904C-37.2706 496.104 -31.4272 509.753 -25.1347 522.955C1.6445 579.143 32.8221 612.937 72.9863 629.303C144.243 658.339 223.417 622.81 254.149 606.189C309.582 576.205 356.763 533.907 402.388 493.002C431.744 466.682 462.103 439.468 494.216 415.974C530.248 389.615 564.818 370.772 599.907 358.363C634.193 346.252 671.167 339.309 709.801 337.735C745.873 336.264 783.625 339.447 822.009 347.197C892.623 361.456 964.284 390.827 1029.25 432.135C1063.45 453.879 1098.56 480.005 1136.59 511.999C1170.5 540.53 1203.6 571.036 1235.61 600.542C1273.7 635.644 1313.09 671.943 1354.34 705.397C1491.21 816.736 1625.11 870.872 1752.32 866.291L1752.4 868.2C1747.54 868.366 1742.65 868.453 1737.75 868.453Z" fill="#30323A"/>
<path d="M1736.34 884.04C1705.77 884.04 1674.6 880.697 1643.4 874.061C1608.37 866.609 1572.5 854.835 1536.79 839.066C1474.33 811.489 1411.01 771.245 1348.59 719.451C1305.89 684.026 1265.15 645.449 1225.76 608.143C1162.01 547.768 1096.09 485.337 1020.42 434.989C877.569 339.948 717.45 309.683 592.1 354.036C512.117 382.335 450.103 438.495 390.132 492.805C343.786 534.777 295.862 578.176 239.464 609.243C209.754 625.608 178.412 636.918 148.825 641.951C114.137 647.854 82.5325 645.252 54.89 634.224C32.9613 625.473 12.9931 611.051 -4.46133 591.356C-18.8992 575.063 -31.9774 554.736 -43.3322 530.941C-50.5132 515.889 -56.872 500.221 -63.0222 485.07C-74.143 457.67 -85.6402 429.34 -102.367 403.838C-132.416 358.023 -177.377 329.667 -222.635 327.994C-250.05 326.979 -279.555 339.439 -297.806 359.733C-312.712 376.306 -317.929 395.307 -312.497 413.23L-314.635 413.742C-317.525 404.201 -317.522 394.382 -314.625 384.557C-311.925 375.395 -306.847 366.63 -299.536 358.501C-290.524 348.482 -278.685 340.131 -265.297 334.352C-251.464 328.379 -236.678 325.5 -222.544 326.023C-209.981 326.487 -197.393 328.917 -185.134 333.244C-173.696 337.282 -162.459 342.993 -151.736 350.226C-132.065 363.49 -114.332 381.686 -100.454 402.843C-83.626 428.499 -72.0941 456.917 -60.9416 484.398C-54.8009 499.523 -48.4547 515.166 -41.2959 530.168C-16.4549 582.225 16.2089 616.63 55.7944 632.424C127.699 661.115 207.379 624.599 238.297 607.567C294.468 576.627 342.297 533.314 388.551 491.425C418.641 464.177 449.755 435.998 482.704 411.7C500.449 398.614 517.315 387.647 534.264 378.176C553.29 367.544 571.939 359.049 591.281 352.208C625.637 340.052 662.712 333.298 701.482 332.133C737.636 331.048 775.498 334.802 814.021 343.291C884.718 358.875 956.55 390.037 1021.74 433.414C1097.57 483.863 1163.56 546.359 1227.37 606.796C1266.74 644.08 1307.45 682.634 1350.09 718.014C1488.44 832.795 1624.94 887.842 1755.84 881.614L1755.95 883.579C1749.45 883.886 1742.91 884.04 1736.34 884.04Z" fill="#30323A"/>
</g>
</svg>
